<mxfile host="app.diagrams.net" agent="Mozilla/5.0 (Windows NT 10.0; Win64; x64) AppleWebKit/537.36 (KHTML, like Gecko) Chrome/131.0.0.0 Safari/537.36" version="25.0.3">
  <diagram name="PÃ¡gina-1" id="c8KPG3ASw3VGSTTS6_Wl">
    <mxGraphModel dx="1434" dy="772" grid="1" gridSize="10" guides="1" tooltips="1" connect="1" arrows="1" fold="1" page="1" pageScale="1" pageWidth="827" pageHeight="1169" math="0" shadow="0">
      <root>
        <mxCell id="0" />
        <mxCell id="1" parent="0" />
        <mxCell id="3Bj0qR6xyN-ANFcm145l-1" value="" style="pointerEvents=1;verticalLabelPosition=bottom;shadow=0;dashed=0;align=center;html=1;verticalAlign=top;shape=mxgraph.electrical.resistors.resistor_2;" vertex="1" parent="1">
          <mxGeometry x="140" y="270" width="100" height="20" as="geometry" />
        </mxCell>
        <mxCell id="3Bj0qR6xyN-ANFcm145l-2" value="" style="pointerEvents=1;verticalLabelPosition=bottom;shadow=0;dashed=0;align=center;html=1;verticalAlign=top;shape=mxgraph.electrical.capacitors.capacitor_1;rotation=-90;" vertex="1" parent="1">
          <mxGeometry x="230" y="340" width="100" height="60" as="geometry" />
        </mxCell>
        <mxCell id="3Bj0qR6xyN-ANFcm145l-3" value="" style="pointerEvents=1;verticalLabelPosition=bottom;shadow=0;dashed=0;align=center;html=1;verticalAlign=top;shape=mxgraph.electrical.resistors.resistor_2;" vertex="1" parent="1">
          <mxGeometry x="320" y="270" width="100" height="20" as="geometry" />
        </mxCell>
      </root>
    </mxGraphModel>
  </diagram>
</mxfile>
